<?xml version="1.0" standalone="no"?>
<!DOCTYPE svg PUBLIC "-//W3C//DTD SVG 20010904//EN"
 "http://www.w3.org/TR/2001/REC-SVG-20010904/DTD/svg10.dtd">
<svg version="1.0" xmlns="http://www.w3.org/2000/svg"
 width="512.000000pt" height="512.000000pt" viewBox="0 0 512.000000 512.000000"
 preserveAspectRatio="xMidYMid meet">
<metadata>
Created by potrace 1.11, written by Peter Selinger 2001-2013
</metadata>
<g transform="translate(0.000000,512.000000) scale(0.100000,-0.100000)"
fill="#000000" stroke="none">
<path d="M2490 4985 c-124 -30 -272 -65 -330 -79 -151 -36 -451 -105 -550
-127 -46 -11 -87 -22 -91 -27 -6 -6 -135 -331 -426 -1067 -63 -159 -118 -299
-123 -310 -17 -36 -520 -1306 -520 -1312 0 -3 -7 -19 -15 -36 -16 -36 -310
-772 -330 -828 -12 -33 -11 -41 10 -85 30 -64 93 -198 165 -354 32 -69 78
-168 102 -220 25 -52 53 -114 63 -137 12 -27 23 -40 34 -38 49 10 236 53 546
125 193 45 357 83 365 85 8 2 125 29 260 60 134 31 251 58 260 60 8 2 94 22
190 45 96 23 225 53 285 66 61 14 117 27 125 29 22 6 412 96 435 101 11 2 93
22 182 43 l162 38 72 -156 c40 -86 94 -203 121 -261 95 -201 104 -221 210
-452 36 -78 14 -75 212 -28 68 16 135 31 148 34 13 3 32 7 43 10 157 37 335
79 355 82 14 3 52 12 85 20 77 20 86 22 255 59 38 8 132 34 135 37 1 2 -12 35
-30 73 -39 82 -93 198 -181 387 -35 76 -82 177 -105 225 -88 189 -112 244
-108 247 2 3 65 19 139 36 74 17 142 33 150 35 8 2 67 15 130 30 163 36 154
28 117 105 -16 36 -48 103 -70 150 -21 47 -61 131 -88 188 -27 57 -49 105 -49
107 0 2 -31 69 -70 149 -66 139 -70 146 -92 137 -17 -8 -327 -81 -448 -106 -8
-2 -34 -8 -58 -13 l-43 -10 -36 76 c-19 43 -58 123 -84 180 -27 57 -49 105
-49 106 0 2 -24 55 -54 117 -29 63 -81 173 -114 244 -33 72 -81 175 -107 230
-49 104 -89 191 -132 285 -14 30 -42 91 -63 135 -20 44 -52 112 -70 150 -18
39 -47 102 -65 140 -18 39 -49 104 -68 145 -19 41 -65 140 -102 220 -37 80
-82 177 -100 215 -38 82 -89 192 -151 325 -25 52 -73 156 -107 230 -48 102
-68 135 -82 137 -11 0 -121 -23 -245 -52z m-203 -1815 c19 -41 61 -131 93
-200 32 -69 73 -159 93 -200 19 -41 51 -110 71 -152 20 -43 52 -113 72 -155
20 -43 52 -112 71 -153 20 -41 48 -102 63 -135 15 -33 58 -125 95 -204 68
-146 70 -159 25 -162 -8 0 -22 -2 -30 -5 -8 -2 -33 -8 -55 -12 -22 -5 -139
-33 -260 -61 -121 -29 -230 -55 -243 -57 -13 -3 -79 -18 -147 -34 -68 -16
-134 -31 -147 -34 -19 -3 -98 -22 -180 -42 -132 -32 -363 -83 -365 -81 -2 3
192 488 217 542 5 11 21 49 35 85 14 36 30 74 35 85 26 62 100 245 100 250 0
3 9 24 19 48 17 35 313 760 343 836 9 24 10 22 34 -30 14 -30 42 -88 61 -129z"/>
</g>
</svg>
