<?xml version="1.0" encoding="UTF-8" standalone="no"?>
<svg
   xmlns:dc="http://purl.org/dc/elements/1.1/"
   xmlns:cc="http://creativecommons.org/ns#"
   xmlns:rdf="http://www.w3.org/1999/02/22-rdf-syntax-ns#"
   xmlns:svg="http://www.w3.org/2000/svg"
   xmlns="http://www.w3.org/2000/svg"
   xmlns:sodipodi="http://sodipodi.sourceforge.net/DTD/sodipodi-0.dtd"
   xmlns:inkscape="http://www.inkscape.org/namespaces/inkscape"
   width="1536"
   height="1536"
   version="1.1"
   id="svg5225"
   sodipodi:docname="burn.svg"
   inkscape:version="0.92.5 (2060ec1f9f, 2020-04-08)">
  <metadata
     id="metadata5231">
    <rdf:RDF>
      <cc:Work
         rdf:about="">
        <dc:format>image/svg+xml</dc:format>
        <dc:type
           rdf:resource="http://purl.org/dc/dcmitype/StillImage" />
        <dc:title></dc:title>
      </cc:Work>
    </rdf:RDF>
  </metadata>
  <defs
     id="defs5229" />
  <sodipodi:namedview
     pagecolor="#ffffff"
     bordercolor="#666666"
     borderopacity="1"
     objecttolerance="10"
     gridtolerance="10"
     guidetolerance="10"
     inkscape:pageopacity="0"
     inkscape:pageshadow="2"
     inkscape:window-width="2560"
     inkscape:window-height="1390"
     id="namedview5227"
     showgrid="false"
     inkscape:zoom="0.61458333"
     inkscape:cx="786.40651"
     inkscape:cy="869.27915"
     inkscape:window-x="0"
     inkscape:window-y="26"
     inkscape:window-maximized="0"
     inkscape:current-layer="svg5225" />
  <path
     d="m 1375.4576,1452.4077 v 54.8078 c 0,14.5583 -12.8456,27.404 -27.4039,27.404 H 197.08915 c -14.55833,0 -27.40391,-12.8457 -27.40391,-27.404 v -54.8078 c 0,-14.5583 12.84558,-27.404 27.40391,-27.404 H 1348.0537 c 14.5583,0 27.4039,12.8457 27.4039,27.404 z M 1156.2262,548.07836 c 0,327.99065 -383.65477,357.1073 -383.65477,575.48224 0,59.9461 29.97304,139.5887 57.37695,191.8275 l -3.42549,-0.8564 0.85638,0.8564 C 591.02047,1206.6287 388.91658,1056.7636 388.91658,767.30971 388.91658,439.31907 772.57143,410.2024 772.57143,191.82743 772.57143,131.88135 742.5984,52.238719 716.05085,0 L 718.61997,0.85637244 717.76359,0 C 954.1224,108.7593 1156.2262,258.62447 1156.2262,548.07836 Z"
     id="path5223"
     inkscape:connector-curvature="0"
     style="stroke-width:0.85637242" />
  <path
     style="opacity:1;fill:#d40000;fill-opacity:1;stroke:none;stroke-width:1.62711859"
     d="m 798.77261,1301.177 c -88.47342,-42.8024 -162.41688,-88.8681 -220.89551,-137.6146 -20.69391,-17.2501 -59.93004,-56.5308 -75.98218,-76.0687 -63.63312,-77.4509 -98.55948,-161.1506 -109.09041,-261.43098 -3.17283,-30.21315 -3.16109,-82.60025 0.0241,-107.4348 10.52878,-82.09219 48.902,-153.26052 118.212,-219.24015 24.18614,-23.02399 45.23876,-40.62214 96.54558,-80.70364 48.76305,-38.09429 63.35004,-50.08622 82.45717,-67.78794 43.99875,-40.76246 66.73799,-74.70067 78.24914,-116.78646 3.1093,-11.36789 3.5623,-17.05534 3.50237,-43.97193 -0.0615,-27.66463 -0.5428,-33.04716 -4.57654,-51.19074 C 758.76902,100.9425 747.55235,67.645709 729.42447,26.755679 723.70662,13.858225 719.36079,2.9733366 719.7671,2.5670366 c 1.20176,-1.2017601 71.03012,33.6018854 100.97161,50.3259754 84.21247,47.037629 145.61993,92.769698 197.58209,147.145558 91.294,95.53487 136.8895,211.06758 136.7233,346.43821 -0.1344,109.40894 -38.1463,191.67397 -127.2638,275.42307 -21.5726,20.27302 -44.8396,39.54545 -94.96837,78.66369 -91.72789,71.58032 -120.15414,100.65586 -142.19061,145.43866 -15.30894,31.111 -20.42931,58.81 -17.60022,95.2097 3.29306,42.3694 20.36961,99.3606 46.18765,154.1462 4.7445,10.0678 7.76188,18.241 6.70527,18.1627 -1.05658,-0.078 -13.27022,-5.6331 -27.14141,-12.3438 z"
     id="path5776"
     inkscape:connector-curvature="0" />
  <path
     style="opacity:1;fill:#d40000;fill-opacity:1;stroke:none;stroke-width:1.62711859"
     d="m 184.354,1530.2288 c -2.78447,-1.7 -6.81159,-5.5431 -8.94915,-8.5401 -3.82061,-5.3569 -3.88648,-6.0697 -3.88648,-42.0594 0,-35.7518 0.089,-36.735 3.79805,-41.9351 2.08892,-2.9288 6.63602,-6.7728 10.10467,-8.5424 6.24771,-3.1873 11.73579,-3.2174 587.51662,-3.2174 h 581.20999 l 6.9019,4.0448 c 4.6022,2.697 8.0384,6.3924 10.3125,11.09 3.1085,6.4214 3.4074,9.8452 3.3748,38.6671 -0.04,35.7003 -1.4487,41.6479 -11.5713,48.8676 l -5.4777,3.9068 -584.13563,0.4045 c -571.3678,0.3957 -584.24625,0.337 -589.19827,-2.6864 z"
     id="path5778"
     inkscape:connector-curvature="0" />
</svg>
