<?xml version="1.0" encoding="UTF-8" standalone="no"?>
<svg
   xmlns:dc="http://purl.org/dc/elements/1.1/"
   xmlns:cc="http://creativecommons.org/ns#"
   xmlns:rdf="http://www.w3.org/1999/02/22-rdf-syntax-ns#"
   xmlns:svg="http://www.w3.org/2000/svg"
   xmlns="http://www.w3.org/2000/svg"
   xmlns:sodipodi="http://sodipodi.sourceforge.net/DTD/sodipodi-0.dtd"
   xmlns:inkscape="http://www.inkscape.org/namespaces/inkscape"
   width="1536"
   height="1536"
   version="1.1"
   id="svg875"
   sodipodi:docname="pick.svg"
   inkscape:version="0.92.5 (2060ec1f9f, 2020-04-08)">
  <metadata
     id="metadata881">
    <rdf:RDF>
      <cc:Work
         rdf:about="">
        <dc:format>image/svg+xml</dc:format>
        <dc:type
           rdf:resource="http://purl.org/dc/dcmitype/StillImage" />
        <dc:title></dc:title>
      </cc:Work>
    </rdf:RDF>
  </metadata>
  <defs
     id="defs879" />
  <sodipodi:namedview
     pagecolor="#ffffff"
     bordercolor="#666666"
     borderopacity="1"
     objecttolerance="10"
     gridtolerance="10"
     guidetolerance="10"
     inkscape:pageopacity="0"
     inkscape:pageshadow="2"
     inkscape:window-width="1246"
     inkscape:window-height="1372"
     id="namedview877"
     showgrid="false"
     inkscape:zoom="0.46484375"
     inkscape:cx="768"
     inkscape:cy="477.99121"
     inkscape:window-x="1290"
     inkscape:window-y="20"
     inkscape:window-maximized="0"
     inkscape:current-layer="svg875" />
  <path
     d="m 1300.5379,857.93212 v 293.72948 c 0,146.8647 -119.1544,266.0191 -266.0191,266.0191 H 266.01911 C 119.15439,1417.6807 0,1298.5263 0,1151.6616 V 383.16191 C 0,236.29719 119.15439,117.14279 266.01911,117.14279 h 768.49969 c 36.9471,0 73.8942,7.38942 108.0702,23.09194 8.3131,3.69471 14.7789,12.00781 16.6262,21.24458 1.8474,10.16045 -0.9237,19.39723 -8.3131,26.78665 l -45.2602,45.2602 c -5.542,5.54206 -13.8551,9.23677 -21.2446,9.23677 -2.771,0 -5.542,-0.92368 -8.313,-1.84735 -13.8552,-3.69471 -27.7104,-5.54207 -41.5655,-5.54207 H 266.01911 c -81.28362,0 -147.78839,66.50478 -147.78839,147.7884 v 768.49969 c 0,81.2836 66.50477,147.7884 147.78839,147.7884 h 768.49969 c 81.2836,0 147.7884,-66.5048 147.7884,-147.7884 V 917.04747 c 0,-7.3894 2.771,-14.7788 8.3131,-20.3209 l 59.1153,-59.11535 c 6.4658,-6.46574 13.8552,-9.23677 21.2446,-9.23677 3.6947,0 7.3894,0.92367 11.0841,2.77103 11.0842,4.61838 18.4736,14.77884 18.4736,26.78664 z M 1513.9074,406.25384 762.03391,1158.1273 c -29.55768,29.5577 -75.74155,29.5577 -105.29923,0 L 259.55337,760.94599 c -29.55768,-29.55768 -29.55768,-75.74155 0,-105.29923 L 361.15789,554.04224 c 29.55768,-29.55768 75.74155,-29.55768 105.29923,0 L 709.3843,796.96941 1307.0036,199.35009 c 29.5577,-29.55768 75.7416,-29.55768 105.2992,0 l 101.6046,101.60452 c 29.5577,29.55768 29.5577,75.74155 0,105.29923 z"
     id="path873"
     inkscape:connector-curvature="0"
     style="stroke-width:0.92367744;fill:#00d400" />
</svg>
